<svg width="32.000000pt" height="50.000000pt" viewBox="0 0 32.000000 50.000000" xmlns="http://www.w3.org/2000/svg">
  <g transform="translate(0.000000,50.000000) scale(0.100000,-0.100000)" fill="#ffffff" stroke="none">
    <path d="M0 250 l0 -250 130 0 130 0 0 9 c0 5 -54 58 -120 117 l-120 107 0 17
0 17 120 107 c66 59 120 112 120 117 l0 9 -130 0 -130 0 0 -250z" />
    <path d="M270 493 c0 -4 9 -16 20 -28 l21 -22 -96 -91 c-52 -49 -95 -95 -95
-102 0 -7 43 -53 95 -102 l96 -91 -21 -22 c-26 -28 -25 -35 5 -35 l25 0 0 250
0 250 -25 0 c-14 0 -25 -3 -25 -7z" />
  </g>
  <g transform="translate(0.000000,50.000000) scale(0.100000,-0.100000)" fill="#c80707" stroke="none">
    <path d="M136 391 c-169 -154 -169 -129 -1 -280 137 -123 133 -120 163 -88 32
34 31 37 -74 136 l-96 91 96 91 c104 99 107 105 73 137 -33 31 -29 33 -161
-87z" />
  </g>
</svg>