<svg width="32.000000pt" height="50.000000pt" viewBox="0 0 32.000000 50.000000" xmlns="http://www.w3.org/2000/svg">
  <g transform="translate(0.000000,50.000000) scale(0.100000,-0.100000)" fill="#ffffff" stroke="none">
    <path d="M0 250 l0 -250 25 0 c14 0 25 3 25 7 0 4 -9 16 -20 28 l-21 22 96 87
95 88 0 18 0 18 -95 88 -96 87 21 22 c11 12 20 24 20 28 0 4 -11 7 -25 7 l-25
0 0 -250z" />
    <path d="M62 492 c2 -4 58 -60 126 -122 67 -63 122 -117 122 -120 0 -3 -55
-57 -122 -120 -68 -62 -124 -118 -126 -122 -2 -4 55 -8 127 -8 l131 0 0 250 0
250 -131 0 c-72 0 -129 -4 -127 -8z" />
  </g>
  <g transform="translate(0.000000,50.000000) scale(0.100000,-0.100000)" fill="#c80707" stroke="none">
    <path d="M22 477 c-12 -13 -22 -27 -22 -33 0 -5 43 -51 97 -101 l98 -93 -98
-93 c-54 -50 -97 -97 -97 -103 0 -14 43 -54 57 -54 18 0 263 233 263 250 0 18
-245 250 -264 250 -7 0 -22 -10 -34 -23z" />
  </g>
</svg>